<?xml version="1.0" encoding="UTF-8" standalone="no"?>
<!-- Created with Inkscape (http://www.inkscape.org/) -->
<svg
   xmlns:dc="http://purl.org/dc/elements/1.1/"
   xmlns:cc="http://creativecommons.org/ns#"
   xmlns:rdf="http://www.w3.org/1999/02/22-rdf-syntax-ns#"
   xmlns:svg="http://www.w3.org/2000/svg"
   xmlns="http://www.w3.org/2000/svg"
   xmlns:sodipodi="http://sodipodi.sourceforge.net/DTD/sodipodi-0.dtd"
   xmlns:inkscape="http://www.inkscape.org/namespaces/inkscape"
   width="744.09448"
   height="1052.3622"
   id="svg2"
   sodipodi:version="0.32"
   inkscape:version="0.46"
   inkscape:export-filename="/home/fredj/Desktop/mapfish_large_2.png"
   inkscape:export-xdpi="47.580002"
   inkscape:export-ydpi="47.580002"
   sodipodi:docbase="/home/ckaenzig/c2c/design"
   sodipodi:docname="mapfish1b_print.svg"
   inkscape:output_extension="org.inkscape.output.svg.inkscape"
   version="1.0">
  <defs
     id="defs4">
    <inkscape:perspective
       sodipodi:type="inkscape:persp3d"
       inkscape:vp_x="0 : 526.18109 : 1"
       inkscape:vp_y="0 : 1000 : 0"
       inkscape:vp_z="744.09448 : 526.18109 : 1"
       inkscape:persp3d-origin="372.04724 : 350.78739 : 1"
       id="perspective17" />
  </defs>
  <sodipodi:namedview
     id="base"
     pagecolor="#ffffff"
     bordercolor="#666666"
     borderopacity="1.0"
     gridtolerance="10000"
     guidetolerance="10"
     objecttolerance="10"
     inkscape:pageopacity="1"
     inkscape:pageshadow="2"
     inkscape:zoom="0.7550173"
     inkscape:cx="404.22781"
     inkscape:cy="207.21276"
     inkscape:document-units="mm"
     inkscape:current-layer="layer1"
     showguides="true"
     inkscape:guide-bbox="true"
     inkscape:window-width="1272"
     inkscape:window-height="950"
     inkscape:window-x="1280"
     inkscape:window-y="0"
     width="744.09449px"
     height="1052.3622px"
     showgrid="false" />
  <metadata
     id="metadata7">
    <rdf:RDF>
      <cc:Work
         rdf:about="">
        <dc:format>image/svg+xml</dc:format>
        <dc:type
           rdf:resource="http://purl.org/dc/dcmitype/StillImage" />
      </cc:Work>
    </rdf:RDF>
  </metadata>
  <g
     inkscape:label="Layer 1"
     inkscape:groupmode="layer"
     id="layer1">
    <g
       id="g2395">
      <path
         id="path2166"
         d="M 381.90625 435.0625 C 346.20957 435.09755 313.75769 449.88999 301.3125 484.8125 C 344.98221 417.68887 429.03588 452.65193 447.40625 463.09375 C 461.48253 471.09479 505.86948 498.7994 501.1875 547.71875 L 507.28125 553.96875 C 526.21755 486.17142 448.40852 434.99721 381.90625 435.0625 z M 498.3125 562.78125 C 494.91506 574.71649 488.63777 587.73266 478.59375 601.84375 C 489.69587 589.83051 497.57999 578.07839 502.6875 566.6875 L 498.3125 562.78125 z "
         style="fill:#ffe400;fill-opacity:1;fill-rule:evenodd;stroke:none;stroke-width:1px;stroke-linecap:butt;stroke-linejoin:miter;stroke-opacity:1" />
      <path
         sodipodi:nodetypes="cczc"
         id="path3139"
         d="M 303.7703,487.49691 C 375.38099,470.97462 486.46451,504.4267 538.70775,599.96719 C 490.62292,547.3726 455.81547,529.94369 446.01384,524.30507 C 436.06261,518.58039 367.96467,482.30899 303.7703,487.49691 z"
         style="fill:#ffab00;fill-opacity:1;fill-rule:evenodd;stroke:none;stroke-width:1px;stroke-linecap:butt;stroke-linejoin:miter;stroke-opacity:1" />
      <path
         transform="matrix(0.7643649,7.8243067e-2,-7.8243131e-2,0.7643649,157.21672,250.03418)"
         d="M 260.04317,255.1335 A 3.8938756,3.8938756 0 1 1 252.25542,255.1335 A 3.8938756,3.8938756 0 1 1 260.04317,255.1335 z"
         sodipodi:ry="3.8938756"
         sodipodi:rx="3.8938756"
         sodipodi:cy="255.1335"
         sodipodi:cx="256.14929"
         id="path3141"
         style="fill:#000000;fill-opacity:1;stroke:none;stroke-width:1;stroke-linecap:butt;stroke-linejoin:miter;stroke-miterlimit:4;stroke-dasharray:1, 1;stroke-dashoffset:0;stroke-opacity:1"
         sodipodi:type="arc" />
    </g>
    <path
       style="font-size:93.57283783px;font-style:normal;font-variant:normal;font-weight:bold;font-stretch:condensed;text-align:start;line-height:100%;writing-mode:lr-tb;text-anchor:start;fill:#000000;fill-opacity:1;stroke:none;stroke-width:1px;stroke-linecap:butt;stroke-linejoin:miter;stroke-opacity:1;font-family:Gill Sans Std"
       d="M 198.21276,595.45758 L 211.68725,595.45758 L 211.68725,567.76002 C 214.21371,563.45567 216.45946,561.39707 219.26664,561.39707 C 222.63526,561.39707 224.31958,564.67212 224.31958,570.00577 L 224.31958,595.45758 L 237.79407,595.45758 L 237.79407,567.38573 C 240.13339,563.3621 242.75343,561.39707 245.65419,561.39707 C 249.86496,561.39707 250.4264,565.13999 250.4264,571.9708 L 250.4264,595.45758 L 263.90089,595.45758 L 263.90089,566.73072 C 263.90089,555.78271 256.32148,551.38477 249.95854,551.38477 C 244.06345,551.38477 239.75909,554.28554 236.76477,560.18062 C 234.70617,554.56626 230.40181,551.38477 224.69387,551.38477 C 219.64094,551.38477 215.43015,553.7241 211.87439,558.8706 L 211.68725,558.8706 L 211.68725,552.22693 L 198.21276,552.22693 L 198.21276,595.45758 M 308.06941,584.41599 C 306.29152,585.63243 305.07507,586.1003 304.13935,586.1003 C 303.01647,586.1003 302.82933,585.53886 302.82933,581.42165 L 302.82933,563.82996 C 302.82933,554.0984 295.43706,551.38477 287.10909,551.38477 C 280.09113,551.38477 275.13176,552.97552 269.14311,557.27986 L 269.14311,567.10501 C 274.94462,562.42637 279.24898,560.55491 283.92761,560.55491 C 287.67052,560.55491 289.35484,562.3328 289.35484,566.45 L 289.35484,567.94717 C 275.78679,572.43866 266.24235,576.55588 266.24235,585.44529 C 266.24235,591.62109 271.10814,596.29974 277.37751,596.29974 C 281.96258,596.29974 285.33121,594.61542 289.91628,590.2175 C 290.57128,594.24113 292.81704,596.20616 296.84067,596.20616 C 300.11571,596.20616 303.2972,594.98971 308.06941,592.08896 L 308.06941,584.41599 M 289.35484,584.32241 C 286.45408,586.66173 285.23763,587.22317 283.08546,587.22317 C 280.27828,587.22317 278.40682,585.35171 278.40682,582.6381 C 278.40682,578.80162 282.14974,576.55586 289.35484,573.93583 L 289.35484,584.32241 M 310.03224,616.0436 L 323.50673,616.0436 L 323.50673,591.43395 C 327.71751,594.70899 331.64757,596.29974 335.39048,596.29974 C 344.65418,596.29974 351.67216,586.84887 351.67216,574.21655 C 351.67216,561.02279 344.74776,551.38477 335.20334,551.38477 C 331.27328,551.38477 327.24964,553.06909 323.50673,556.34413 L 323.50673,552.22693 L 310.03224,552.22693 L 310.03224,616.0436 M 323.50673,565.51427 C 326.22034,562.42637 328.27895,561.20992 330.89899,561.20992 C 335.10976,561.20992 337.63623,565.70143 337.63623,573.46796 C 337.63623,581.04736 334.82904,585.81958 330.43112,585.81958 C 328.0918,585.81958 325.75248,584.60313 323.50673,582.07666 L 323.50673,565.51427"
       id="text4112" />
    <path
       style="font-size:94.17199707px;font-style:normal;font-variant:normal;font-weight:300;font-stretch:normal;text-align:start;line-height:100%;writing-mode:lr-tb;text-anchor:start;fill:#000000;fill-opacity:1;stroke:none;stroke-width:1px;stroke-linecap:butt;stroke-linejoin:miter;stroke-opacity:1;font-family:Gill Sans Std"
       d="M 367.05718,552.98905 L 358.29918,552.98905 L 358.29918,547.71542 C 358.29918,538.10989 361.59521,533.96631 369.12896,533.96631 C 374.49676,533.96631 378.45199,536.50896 378.92285,542.0651 L 383.4431,542.0651 C 383.06642,534.53135 377.79278,530.19943 368.94062,530.19943 C 359.14674,530.19943 353.77893,536.32062 353.77893,547.71542 L 353.77893,552.98905 L 346.05682,552.98905 L 346.05682,556.66176 L 353.77893,556.66176 L 353.77893,595.27228 L 358.29918,595.27228 L 358.29918,556.66176 L 367.05718,556.66176 L 367.05718,552.98905 M 383.4431,552.98905 L 378.92285,552.98905 L 378.92285,595.27228 L 383.4431,595.27228 L 383.4431,552.98905 M 415.25788,555.72004 C 411.02014,553.27157 407.62994,552.1415 403.95724,552.1415 C 396.32931,552.1415 390.3023,557.2268 390.3023,563.72466 C 390.3023,577.28541 412.24437,574.27193 412.24437,584.34833 C 412.24437,588.68023 408.47749,591.69374 403.29803,591.69374 C 399.24864,591.69374 395.57592,590.65785 390.01978,587.83269 L 390.01978,592.25877 C 394.35169,594.89559 398.40109,596.11983 402.733,596.11983 C 410.54927,596.11983 416.57628,591.03453 416.57628,584.4425 C 416.57628,569.75168 394.63421,573.61271 394.63421,563.44214 C 394.63421,559.39275 398.58944,556.28507 403.67472,556.28507 C 407.4416,556.28507 410.54928,557.50931 415.25788,560.61698 L 415.25788,555.72004 M 427.07608,531.04698 L 422.55582,531.04698 L 422.55582,595.27228 L 427.07608,595.27228 L 427.07608,565.6081 C 430.93712,559.5811 434.70401,556.56759 440.91936,556.56759 C 449.01814,556.56759 452.40834,562.02957 452.40834,571.16425 L 452.40834,595.27228 L 456.9286,595.27228 L 456.9286,569.37498 C 456.9286,558.07435 450.24238,552.1415 441.20187,552.1415 C 435.0807,552.1415 431.21964,554.40164 427.26442,560.33447 L 427.07608,560.33447 L 427.07608,531.04698"
       id="text4118" />
  </g>
</svg>
